<svg width="171" height="40" viewBox="0 0 171 40" fill="none" xmlns="http://www.w3.org/2000/svg">
<g clip-path="url(#clip0_187_328)">
<path d="M14.9783 0.130432C17 0.130432 18.913 0.521737 20.7391 1.30435C22.5652 2.08695 24.1522 3.15217 25.5 4.52174C26.8696 5.8913 27.9348 7.47826 28.7609 9.28261C29.5652 11.1087 29.9783 13.0652 29.9783 15.1739C29.9783 17.2391 29.587 19.1739 28.8043 20.9565C28.0217 22.7609 26.9565 24.3261 25.6087 25.6956C24.2609 27.0652 22.6957 28.1304 20.8696 28.913C19.0435 29.6956 17.087 30.087 14.9783 30.087C12.913 30.087 10.9783 29.7174 9.15217 28.9783L8.28261 28.6087V35.6522C8.28261 36.8043 7.86957 37.7826 7.06522 38.587C6.26087 39.3913 5.30435 39.8043 4.19565 39.8043C3 39.8043 2 39.3913 1.19565 38.587C0.391304 37.7826 0 36.8261 0 35.6522V15.1739C0 13.1087 0.391304 11.1739 1.15217 9.3913C1.91304 7.58695 2.97826 6.02174 4.30435 4.69565C5.65217 3.32608 7.23913 2.26087 9.06522 1.45652C10.913 0.652171 12.8696 0.217389 14.9783 0.130432Z" fill="#00CEEA"/>
<path d="M36.4563 39.8696C35.3476 39.8696 34.4128 39.5 33.6737 38.7826C32.9346 38.0652 32.5215 37.1087 32.4346 35.913V24.4565C32.478 22.4783 32.8911 20.6087 33.6954 18.8478C34.4998 17.087 35.565 15.5652 36.9128 14.2609C38.2607 12.9565 39.8259 11.9348 41.6085 11.1739C43.4128 10.413 45.3041 9.97826 47.3259 9.91304C48.478 9.91304 49.4346 10.3043 50.1954 11.087C50.9563 11.8696 51.3911 12.8261 51.4563 13.9348C51.4563 15.0435 51.065 15.9783 50.2824 16.7609C49.4998 17.5217 48.5215 17.9348 47.3694 17.9783C46.4128 17.9783 45.5215 18.1522 44.7172 18.5C43.8911 18.8478 43.1737 19.3261 42.5433 19.9565C41.9346 20.5652 41.4346 21.3043 41.065 22.1522C40.6954 23 40.4998 23.913 40.4998 24.913V36.1739C40.4128 37.2391 40.0215 38.1304 39.2824 38.8261C38.6302 39.5217 37.652 39.8696 36.4563 39.8696Z" fill="#00CEEA"/>
<path d="M67.239 9.84782C69.2173 9.84782 71.1086 10.2609 72.9347 11.087C74.7608 11.913 76.3477 13.0217 77.739 14.3913C79.1303 15.7826 80.2173 17.3696 81.0434 19.1522C81.8695 20.9565 82.2825 22.8261 82.2825 24.8261C82.2825 25.8913 81.8695 26.7391 81.0651 27.3696C80.2608 27.9783 79.2608 28.2826 78.0651 28.2391C75.9564 28.413 75.0216 29.0652 75.239 30.2174C75.4564 31.3696 75.739 32.2826 76.0434 32.9783C76.3477 33.6522 76.4564 34.3913 76.3477 35.1739C76.239 35.9565 75.8912 36.6739 75.2608 37.3478C74.1521 38.2609 72.9129 38.8913 71.5434 39.2391C70.1738 39.587 68.739 39.7826 67.2173 39.8261C65.239 39.913 63.3477 39.5435 61.5216 38.7391C59.6955 37.9348 58.1086 36.8478 56.7173 35.4565C55.326 34.0652 54.239 32.4565 53.4347 30.587C52.6303 28.7391 52.2173 26.8043 52.2173 24.8261C52.2173 22.8913 52.6303 21 53.4347 19.1957C54.239 17.3696 55.326 15.7826 56.6955 14.3913C58.0651 13 59.6521 11.913 61.4564 11.087C63.2825 10.2609 65.2173 9.84782 67.239 9.84782Z" fill="#00CEEA"/>
<path d="M110.261 0.369568C111.326 0.369568 112.282 0.760872 113.087 1.52174C113.891 2.28261 114.304 3.26087 114.304 4.45652V24.8261C114.304 26.8478 113.891 28.7609 113.087 30.587C112.282 32.413 111.196 34 109.804 35.3478C108.413 36.7174 106.826 37.7826 105 38.6087C103.174 39.413 101.282 39.8261 99.3042 39.8261C97.326 39.8261 95.4347 39.4348 93.6086 38.6522C91.7825 37.8696 90.1955 36.8044 88.8042 35.4348C87.4129 34.0652 86.326 32.4783 85.4999 30.6739C84.6738 28.8478 84.2607 26.913 84.2607 24.8478C84.2607 22.8261 84.6738 20.913 85.4781 19.087C86.2825 17.2609 87.3694 15.6739 88.7607 14.3261C90.152 12.9565 91.739 11.8913 93.5651 11.0652C95.3912 10.2609 97.3042 9.84783 99.326 9.84783C101.804 9.84783 104.087 10.413 106.196 11.5217V4.39131C106.196 3.84783 106.304 3.34783 106.543 2.84783C106.761 2.34783 107.065 1.91305 107.435 1.54348C107.804 1.17392 108.239 0.891307 108.739 0.673916C109.217 0.478264 109.717 0.369568 110.261 0.369568Z" fill="#00CEEA"/>
<path d="M122.587 0.565216C123.652 0.565216 124.587 0.97826 125.348 1.78261C126.109 2.58696 126.5 3.52174 126.5 4.60869C126.5 5.67391 126.109 6.63043 125.348 7.43478C124.587 8.23913 123.674 8.65217 122.587 8.65217C121.391 8.60869 120.413 8.23913 119.652 7.5C118.891 6.78261 118.5 5.76087 118.5 4.43478C118.543 3.36956 118.957 2.45652 119.761 1.71739C120.565 0.97826 121.5 0.565216 122.587 0.565216ZM122.587 10.0217C123.652 10.0217 124.565 10.413 125.283 11.1957C126 11.9783 126.413 12.9348 126.5 14.0435V35.9565C126.5 37.0652 126.152 38 125.457 38.7391C124.761 39.4783 123.804 39.8913 122.609 39.9783C121.543 39.9783 120.63 39.6522 119.891 38.9783C119.152 38.3261 118.696 37.3913 118.522 36.1956V13.8043C118.609 12.7391 119.043 11.8478 119.826 11.1522C120.587 10.4348 121.5 10.0652 122.587 10.0217Z" fill="#00CEEA"/>
<path d="M170.065 33.587L159.152 20.1522L169.783 6.30435C171.848 3.63043 169.696 0 166.065 0H158.696H151.305H143.587H135.826C132.152 0 130 3.71739 132.152 6.3913L142.739 19.5217L131.652 33.6522C129.544 36.3261 131.696 40 135.348 40H142.609H150.609H158.696H166.413C170.087 40 172.239 36.2609 170.065 33.587Z" fill="url(#paint0_linear_187_328)"/>
</g>
<defs>
<linearGradient id="paint0_linear_187_328" x1="132.258" y1="1.54374" x2="169.57" y2="38.8559" gradientUnits="userSpaceOnUse">
<stop stop-color="#00CEEA"/>
<stop offset="1" stop-color="#28C38B"/>
</linearGradient>
<clipPath id="clip0_187_328">
<rect width="170.935" height="40" fill="white"/>
</clipPath>
</defs>
</svg>
