<svg xmlns="http://www.w3.org/2000/svg" xmlns:xlink="http://www.w3.org/1999/xlink" viewBox="0 0 1592 1592"><defs><style>.cls-1{isolation:isolate;}.cls-2{fill:url(#linear-gradient);}.cls-3,.cls-4{fill:#fff;}.cls-4{opacity:0.6;mix-blend-mode:screen;}</style><linearGradient id="linear-gradient" x1="0.01" y1="796.01" x2="1591.99" y2="796.01" gradientUnits="userSpaceOnUse"><stop offset="0" stop-color="#00ceea"/><stop offset="1" stop-color="#28c38b"/></linearGradient></defs><g class="cls-1"><g id="Laag_1" data-name="Laag 1"><path class="cls-2" d="M1568.21,988.59C1461.85,1415,1029.94,1674.5,603.35,1568.16,177,1461.82-82.51,1030,23.84,603.56s538.27-686,964.6-579.7S1674.43,562.06,1568.21,988.59Z"/><path class="cls-3" d="M1074,444.17Q967.55,328.82,813.74,322.9q-189.37,0-292.8,109.43-103.58,109.4-109.44,281,0,153.75,115.35,263.24T796,1086q153.76,0,269.16-109.43T1180.5,713.31Q1180.5,559.43,1074,444.17ZM796,965c-144.92,0-262.4-117.48-262.4-262.4S651.08,440.22,796,440.22s262.4,117.49,262.4,262.41S940.92,965,796,965Z"/><rect class="cls-3" x="411.5" y="1147.03" width="768.99" height="122.09" rx="61.05"/><circle class="cls-4" cx="796" cy="702.63" r="262.4"/></g></g></svg>