<?xml version="1.0" encoding="utf-8"?>
<!-- Generator: Adobe Illustrator 24.1.0, SVG Export Plug-In . SVG Version: 6.00 Build 0)  -->
<svg version="1.1" id="Laag_1" xmlns:serif="http://www.serif.com/"
	 xmlns="http://www.w3.org/2000/svg" xmlns:xlink="http://www.w3.org/1999/xlink" x="0px" y="0px" viewBox="0 0 1592 1592"
	 style="enable-background:new 0 0 1592 1592;" xml:space="preserve">
<style type="text/css">
	.st0{fill:url(#SVGID_1_);}
	.st1{fill:#FFFFFF;}
</style>
<g transform="matrix(1.29702,0,0,1.29686,0.0031914,-0.00311808)">
	<g>
		<g>
			<linearGradient id="SVGID_1_" gradientUnits="userSpaceOnUse" x1="2.168471e-02" y1="613.8001" x2="1592.0065" y2="613.8001">
				<stop  offset="0" style="stop-color:#00CEEA"/>
				<stop  offset="1" style="stop-color:#28C38B"/>
			</linearGradient>
			<path class="st0" d="M1209.1,762.3c-82,328.8-415,528.9-743.9,446.9c-328.7-82-528.8-415-446.8-743.8
				c81.9-328.9,415-529,743.7-447C1090.9,100.3,1291,433.4,1209.1,762.3z"/>
		</g>
	</g>
</g>
<path class="st1" d="M1163.9,1056.6L954.5,799l204-265.7c39.4-51.4-1.8-121.1-71.5-121.1H945.7H803.9h-148H507.2
	c-70.7,0-111.6,71.4-70.3,122.6l203.2,251.9l-212.7,270.9c-40.3,51.3,0.8,121.8,71,121.8h139.1H791h154.7h148
	C1164.5,1179.4,1205.5,1107.7,1163.9,1056.6z"/>
</svg>
