<?xml version="1.0" encoding="utf-8"?>
<!-- Generator: Adobe Illustrator 24.1.0, SVG Export Plug-In . SVG Version: 6.00 Build 0)  -->
<svg version="1.1" id="Laag_1" xmlns:serif="http://www.serif.com/"
	 xmlns="http://www.w3.org/2000/svg" xmlns:xlink="http://www.w3.org/1999/xlink" x="0px" y="0px" viewBox="0 0 1592 1592"
	 style="enable-background:new 0 0 1592 1592;" xml:space="preserve">
<style type="text/css">
	.st0{fill:#249655;}
	.st1{fill:#FFFFFF;}
</style>
<g transform="matrix(1.29702,0,0,1.29686,0.0031914,-0.00311808)">
	<g>
		<g>
			<path class="st0" d="M1209.1,762.3c-82,328.8-415,528.9-743.9,446.9c-328.7-82-528.8-415-446.8-743.8
				c81.9-328.9,415-529,743.7-447C1090.9,100.3,1291,433.4,1209.1,762.3z"/>
		</g>
	</g>
</g>
<g>
	<path class="st1" d="M731.8,1295.7v-139.5H558V976.3h201.2c47,0,70.5-13.3,70.5-39.9c0-14.5-9.1-28.6-27.4-42.3l-122.2-94.5
		c-84.6-64.5-127-132.6-127-204.5c0-53.9,16.6-96.9,49.7-129.2c31.5-31.4,74.5-49.4,128.9-53.9V295.9h117.5v116.3h137.4v159.1H809.1
		c-38.5,0-57.7,10.4-57.7,31.2c0,14.3,10.2,28.6,30.5,42.9l150.8,109c70.8,51.5,106.3,112.9,106.3,184.4
		c0,116.8-63.2,189.3-189.7,217.4v139.5H731.8z"/>
</g>
</svg>
